<svg width="40" height="40" viewBox="0 0 40 40" fill="none" xmlns="http://www.w3.org/2000/svg">
<path d="M20 33.3334L7.34633 17.5163C7.01381 17.1007 6.84755 16.8928 6.80288 16.6424C6.75821 16.3919 6.84237 16.1394 7.0107 15.6345L9.08826 9.40178C9.52828 8.08174 9.74828 7.42172 10.2721 7.0442C10.7958 6.66669 11.4916 6.66669 12.883 6.66669H27.1169C28.5084 6.66669 29.2041 6.66669 29.7279 7.0442C30.2516 7.42172 30.4716 8.08174 30.9117 9.40178L32.9892 15.6345C33.1575 16.1394 33.2417 16.3919 33.197 16.6424C33.1524 16.8928 32.9861 17.1007 32.6536 17.5163L20 33.3334ZM20 33.3334L25.8333 15M20 33.3334L14.1666 15M32.5 16.6667L25.8333 15M25.8333 15L23.3333 8.33335M25.8333 15H14.1666M16.6666 8.33335L14.1666 15M14.1666 15L7.49996 16.6667" stroke="#0063BE" stroke-width="2" stroke-linecap="round"/>
</svg>
