<svg width="40" height="40" viewBox="0 0 40 40" fill="none" xmlns="http://www.w3.org/2000/svg">
<path d="M13.3333 33.3333L12.6262 34.0404L13.3333 34.7475L14.0404 34.0404L13.3333 33.3333ZM16.6666 7.66665C17.2189 7.66665 17.6666 7.21893 17.6666 6.66665C17.6666 6.11436 17.2189 5.66665 16.6666 5.66665L16.6666 7.66665ZM5.95952 27.3738L12.6262 34.0404L14.0404 32.6262L7.37373 25.9595L5.95952 27.3738ZM14.0404 34.0404L20.7071 27.3738L19.2929 25.9595L12.6262 32.6262L14.0404 34.0404ZM14.3333 33.3333L14.3333 8.66664L12.3333 8.66664L12.3333 33.3333L14.3333 33.3333ZM15.3333 7.66665L16.6666 7.66665L16.6666 5.66665L15.3333 5.66665L15.3333 7.66665ZM14.3333 8.66664C14.3333 8.11436 14.781 7.66665 15.3333 7.66665L15.3333 5.66665C13.6764 5.66665 12.3333 7.00979 12.3333 8.66664L14.3333 8.66664Z" fill="#ff471f"/>
<path d="M26.6667 6.66669L25.9596 5.95958L26.6667 5.25247L27.3738 5.95958L26.6667 6.66669ZM26.6667 33L25.6667 33L26.6667 33ZM23.3333 36C22.781 36 22.3333 35.5523 22.3333 35C22.3333 34.4477 22.781 34 23.3333 34L23.3333 36ZM19.2929 12.6262L25.9596 5.95958L27.3738 7.37379L20.7071 14.0405L19.2929 12.6262ZM27.3738 5.95958L34.0404 12.6262L32.6262 14.0405L25.9596 7.37379L27.3738 5.95958ZM27.6667 6.66669L27.6667 33L25.6667 33L25.6667 6.66669L27.6667 6.66669ZM24.6667 36L23.3333 36L23.3333 34L24.6667 34L24.6667 36ZM27.6667 33C27.6667 34.6569 26.3235 36 24.6667 36L24.6667 34C25.219 34 25.6667 33.5523 25.6667 33L27.6667 33Z" fill="#ff471f"/>
</svg>
