<svg width="40" height="40" viewBox="0 0 40 40" fill="none" xmlns="http://www.w3.org/2000/svg">
<path d="M13.3334 13.3333L13.3334 11.6667C13.3334 7.98478 16.3181 5.00001 20 5.00001V5.00001C23.6819 5.00001 26.6667 7.98478 26.6667 11.6667L26.6667 13.3333" stroke="#0063BE" stroke-width="2" stroke-linecap="round"/>
<path d="M25 23.3333V20" stroke="#0063BE" stroke-width="2" stroke-linecap="round"/>
<path d="M15 23.3333V20" stroke="#0063BE" stroke-width="2" stroke-linecap="round"/>
<path d="M6.66663 17.3333C6.66663 15.4477 6.66663 14.5049 7.25241 13.9191C7.8382 13.3333 8.78101 13.3333 10.6666 13.3333H29.3333C31.2189 13.3333 32.1617 13.3333 32.7475 13.9191C33.3333 14.5049 33.3333 15.4477 33.3333 17.3333V27C33.3333 30.7712 33.3333 32.6569 32.1617 33.8284C30.9901 35 29.1045 35 25.3333 35H14.6666C10.8954 35 9.00977 35 7.8382 33.8284C6.66663 32.6569 6.66663 30.7712 6.66663 27V17.3333Z" stroke="#0063BE" stroke-width="2"/>
</svg>
